Coordinates
version=1
nRows=7
nColumns=40
inDegrees=yes

Units are S.I. units (second, meters, Newtons, ...)
If the header above contains a line with 'inDegrees', this indicates whether rotational values are in degrees (yes) or radians (no).

endheader
time	pelvis_tilt	pelvis_list	pelvis_rotation	pelvis_tx	pelvis_ty	pelvis_tz	hip_flexion_r	hip_adduction_r	hip_rotation_r	knee_angle_r	knee_angle_r_beta	ankle_angle_r	subtalar_angle_r	mtp_angle_r	hip_flexion_l	hip_adduction_l	hip_rotation_l	knee_angle_l	knee_angle_l_beta	ankle_angle_l	subtalar_angle_l	mtp_angle_l	lumbar_extension	lumbar_bending	lumbar_rotation	arm_flex_r	arm_add_r	arm_rot_r	elbow_flex_r	pro_sup_r	wrist_flex_r	wrist_dev_r	arm_flex_l	arm_add_l	arm_rot_l	elbow_flex_l	pro_sup_l	wrist_flex_l	wrist_dev_l
      0.00000000	      8.65882429	      6.68802829	      6.27633089	      0.05068847	      1.32521367	     -0.00467941	     33.39325595	    -10.96220506	     -6.32658296	     41.71538262	      0.72807078	    -19.37727554	    -15.24831591	      0.00000000	     40.63624333	      1.66804763	      3.40012583	     93.09228609	      1.62476690	    -13.44757693	    -18.99028549	      0.00000000	    -64.77039180	      0.59165000	     -5.22698855	     49.76507629	     13.52390385	    -64.73594988	     50.79518940	     81.32261870	      0.00000000	      0.00000000	     60.85086532	     17.71790436	    -60.25308715	     45.63351360	     63.18496578	      0.00000000	      0.00000000
      0.01700000	      8.31673610	      7.28715690	      6.35690614	      0.05011485	      1.32456342	     -0.00450377	     31.16110323	    -11.14328490	     -5.35182382	     38.82387040	      0.67760437	    -20.41428308	    -15.60292815	      0.00000000	     42.92464473	      2.94318301	      3.89564162	     95.18691862	      1.66132513	    -13.28078032	    -19.17148001	      0.00000000	    -64.41397032	      0.11858308	     -5.77449080	     49.49078388	     13.32282709	    -64.73206289	     50.65049490	     81.31183930	      0.00000000	      0.00000000	     60.72697466	     17.91703332	    -60.20234466	     45.69723108	     63.25332101	      0.00000000	      0.00000000
      0.03300000	      7.96445467	      7.89172257	      6.54024043	      0.04961592	      1.32376718	     -0.00459321	     28.88531897	    -11.39770900	     -4.36860687	     35.83052903	      0.62536070	    -21.68811430	    -16.12378167	      0.00000000	     45.25950856	      4.23410924	      4.33909028	     97.27424914	      1.69775592	    -13.20305859	    -19.29629811	      0.00000000	    -64.03077198	     -0.25553622	     -6.38421617	     49.21890055	     13.15333346	    -64.72213622	     50.50261714	     81.29622728	      0.00000000	      0.00000000	     60.54321272	     18.12011631	    -60.18043456	     45.77094040	     63.30683825	      0.00000000	      0.00000000
      0.05000000	      7.64356358	      8.32819985	      6.77770146	      0.04925463	      1.32312880	     -0.00464156	     26.64924159	    -11.66539702	     -4.08585265	     33.12016599	      0.57805595	    -23.13616436	    -16.90922138	      0.00000000	     47.64826902	      5.30005118	      4.63700894	     99.02250218	      1.72826870	    -13.14173302	    -19.40916371	      0.00000000	    -63.70819620	     -0.48641372	     -6.87015962	     49.01692092	     12.92578108	    -64.67425364	     50.25643522	     81.13006279	      0.00000000	      0.00000000	     60.38992165	     18.33834188	    -60.11162284	     45.90945397	     63.38914579	      0.00000000	      0.00000000
      0.06700000	      7.31440780	      8.80078097	      6.93106918	      0.04896163	      1.32244754	     -0.00451597	     24.70481003	    -12.09976626	     -3.96326962	     31.08961911	      0.54261622	    -24.19794702	    -17.06870540	      0.00000000	     50.19734417	      6.06870172	      4.38688420	    100.36091423	      1.75162839	    -12.93082978	    -19.41290459	      0.00000000	    -63.43600370	     -0.78263748	     -7.35010594	     48.91031714	     12.76767356	    -64.66573832	     50.13385985	     81.01630033	      0.00000000	      0.00000000	     60.36345843	     18.53028809	    -60.08311517	     45.95939755	     63.44127844	      0.00000000	      0.00000000
      0.08300000	      6.98394451	      9.17513997	      7.07350403	      0.04878474	      1.32185158	     -0.00429910	     22.89897853	    -12.54218823	     -4.26455978	     29.42419220	      0.51354903	    -25.16247904	    -17.03839589	      0.00000000	     52.81559069	      6.60347671	      3.92183671	    101.32635074	      1.76847844	    -12.74602992	    -19.43000147	      0.00000000	    -63.19061145	     -1.02224792	     -7.76501719	     48.88114995	     12.60820009	    -64.64045754	     49.97996142	     80.83663651	      0.00000000	      0.00000000	     60.38207100	     18.68186769	    -60.02330526	     46.01093268	     63.47431406	      0.00000000	      0.00000000
      0.10000000	      6.69760655	      9.46396955	      7.28135741	      0.04875064	      1.32137683	     -0.00420671	     21.32517877	    -12.95052542	     -4.68587286	     28.32188200	      0.49431009	    -25.97260283	    -17.08318409	      0.00000000	     55.22840510	      7.08934717	      3.42718967	    101.86066589	      1.77780400	    -12.46707580	    -19.58013994	      0.00000000	    -63.00665276	     -1.11279824	     -8.14311196	     48.91925545	     12.49048862	    -64.65411516	     49.80437366	     80.69394888	      0.00000000	      0.00000000	     60.42279345	     18.82620067	    -60.00242102	     46.07506231	     63.53552042	      0.00000000	      0.00000000
